<svg width="25" height="25" viewBox="0 0 25 25" fill="none" xmlns="http://www.w3.org/2000/svg">
<g id="FB">
<path id="Facebook" d="M13.5638 23.25V13.1392V12.3892H14.3138H16.8916L17.1686 9.70387H14.3138H13.5616L13.5638 8.95168L13.5699 6.86122C13.5699 6.86087 13.5699 6.86052 13.5699 6.86017L13.5699 6.85903L14.3199 6.86122C14.3199 5.76951 14.4212 5.1853 15.9434 5.1853L13.5638 23.25ZM13.5638 23.25H10.1871V13.1392V12.3892H9.43713H7.75V9.70387H9.43713H10.1871V8.95387V6.4432C10.1871 4.81684 10.5186 3.67619 11.1737 2.94113C11.813 2.2238 12.8905 1.75 14.7224 1.75H17.2268V4.4353L13.5638 23.25Z" stroke="#1D2733" stroke-width="1.5"/>
</g>
</svg>
