<svg width="25" height="25" viewBox="0 0 25 25" fill="none" xmlns="http://www.w3.org/2000/svg">
<g id="WhatsApp">
<path id="Ellipse 67" d="M11.1382 21.2628L10.9239 21.2227L10.7215 21.3036L6.64772 22.9331L6.42438 20.6848L6.39145 20.3533L6.12342 20.1555C3.46917 18.1966 1.75 15.0491 1.75 11.5C1.75 5.56294 6.56294 0.75 12.5 0.75C18.4371 0.75 23.25 5.56294 23.25 11.5C23.25 14.4833 22.0758 17.2729 19.9992 19.136C17.9363 20.9867 14.9274 21.9733 11.1382 21.2628Z" stroke="#1D2733" stroke-width="1.5"/>
<path id="Vector" d="M8.34282 5.00123C8.25086 4.99702 8.15671 5.00333 8.05818 5.02437C7.04004 5.24102 6.02846 5.94988 6 7.21616C6.02846 7.39285 6.02627 7.58216 6.09415 7.74202C6.42696 8.5245 6.71598 9.33223 7.132 10.0726C9.15734 13.6695 12.2205 16.1705 16.1245 17.7586C16.5909 17.9479 17.0726 17.9879 17.5433 17.7986C18.1914 17.5399 18.741 17.1402 19.1067 16.566C19.6081 15.7772 19.6146 15.2303 18.7892 14.6476C18.2484 14.2648 17.7163 13.8715 17.1689 13.497C16.3347 12.9291 15.4326 12.8303 14.8108 13.8273C14.7779 13.8778 14.7297 13.9198 14.6881 13.9619C14.3685 14.2879 13.9765 14.3679 13.5605 14.2038C11.9819 13.5791 10.7623 12.5715 10.0266 11.0718C9.59306 10.1904 9.71129 9.74871 10.5214 9.16185C10.6024 9.10505 10.6791 9.04405 10.7535 8.97885C11.1082 8.66754 11.2024 8.29733 10.9922 7.87874C10.517 6.92378 9.88427 6.07188 9.08289 5.33778C8.86613 5.14006 8.61871 5.01595 8.34282 5.00123Z" fill="#1D2733"/>
</g>
</svg>
