<svg width="36" height="36" viewBox="0 0 36 36" fill="none" xmlns="http://www.w3.org/2000/svg">
<g id="Global">
<circle id="Ellipse 57" cx="18" cy="18" r="17.25" stroke="white" stroke-width="1.5"/>
<path id="Ellipse 58" d="M26.25 18C26.25 22.8794 25.2595 27.2597 23.6931 30.3925C22.1043 33.5701 20.0482 35.25 18 35.25C15.9518 35.25 13.8957 33.5701 12.3069 30.3925C10.7405 27.2597 9.75 22.8794 9.75 18C9.75 13.1206 10.7405 8.74026 12.3069 5.60749C13.8957 2.42986 15.9518 0.75 18 0.75C20.0482 0.75 22.1043 2.42986 23.6931 5.60749C25.2595 8.74026 26.25 13.1206 26.25 18Z" stroke="white" stroke-width="1.5"/>
<path id="Vector 65" d="M2 12L34 12" stroke="white" stroke-width="1.5" stroke-linecap="round"/>
<path id="Vector 66" d="M2 24L34 24" stroke="white" stroke-width="1.5" stroke-linecap="round"/>
</g>
</svg>
