<svg width="30" height="30" viewBox="0 0 30 30" fill="none" xmlns="http://www.w3.org/2000/svg">
<g id="WhatsApp">
<path id="Ellipse 67" d="M13.3382 25.6628L13.1239 25.6227L12.9214 25.7036L7.84767 27.7331L7.55995 24.8366L7.52702 24.5051L7.25898 24.3073C4.03722 21.9296 1.94995 18.1086 1.94995 13.8C1.94995 6.59268 7.79264 0.75 15 0.75C22.2073 0.75 28.05 6.59268 28.05 13.8C28.05 17.4184 26.6258 20.808 24.0991 23.0748C21.5862 25.3293 17.9273 26.5233 13.3382 25.6628Z" stroke="white" stroke-width="1.5"/>
<path id="Vector" d="M10.6988 7.20121C10.6085 7.19691 10.5161 7.20336 10.4195 7.22484C9.42043 7.44616 8.42783 8.17026 8.3999 9.46376C8.42783 9.64425 8.42568 9.83763 8.49229 10.0009C8.81885 10.8002 9.10245 11.6253 9.51066 12.3817C11.498 16.0559 14.5037 18.6107 18.3344 20.2329C18.7921 20.4263 19.2647 20.4671 19.7266 20.2737C20.3626 20.0094 20.9019 19.6012 21.2607 19.0146C21.7527 18.2089 21.7591 17.6502 20.9491 17.055C20.4185 16.664 19.8964 16.2622 19.3593 15.8797C18.5407 15.2996 17.6555 15.1986 17.0454 16.217C17.0131 16.2686 16.9659 16.3116 16.925 16.3545C16.6114 16.6876 16.2268 16.7692 15.8186 16.6016C14.2695 15.9635 13.0728 14.9343 12.3509 13.4023C11.9255 12.502 12.0416 12.0508 12.8365 11.4513C12.916 11.3933 12.9912 11.331 13.0642 11.2643C13.4123 10.9463 13.5047 10.5682 13.2984 10.1406C12.8322 9.16509 12.2113 8.29488 11.425 7.545C11.2123 7.34302 10.9695 7.21625 10.6988 7.20121Z" fill="white"/>
</g>
</svg>
